<svg width="6377" height="6354" viewBox="0 0 6377 6354" fill="none" xmlns="http://www.w3.org/2000/svg">
<path d="M934.037 5806.95C2179.19 6536.21 4197.98 6536.21 5443.14 5806.95C6688.29 5077.68 6688.29 3895.02 5443.14 3165.76C4197.98 2436.49 2179.19 2436.34 933.899 3165.76C-311.392 3895.18 -311.253 5077.53 934.037 5806.95Z" fill="#E0E0E0"/>
<path d="M2172.11 4592.23C2385.98 4592.23 2559.35 4499.58 2559.35 4385.29C2559.35 4270.99 2385.98 4178.34 2172.11 4178.34C1958.25 4178.34 1784.88 4270.99 1784.88 4385.29C1784.88 4499.58 1958.25 4592.23 2172.11 4592.23Z" fill="#EBEBEB"/>
<path d="M959.35 3431.88L1023.18 3413.75C1043.5 3319.22 1056.76 3222.95 1062.82 3125.95C1079.26 2893.6 998.723 2718.25 898.425 2645.76C779.339 2559.79 716.895 2638.33 724.079 2700.13C731.677 2765.34 794.536 2857.51 824.515 2921.17C867.894 3013.34 933.654 3153.06 959.35 3431.88Z" fill="#DD6060"/>
<path opacity="0.2" d="M959.35 3431.88L1023.18 3413.75C1043.5 3319.22 1056.76 3222.95 1062.82 3125.95C1079.26 2893.6 998.723 2718.25 898.425 2645.76C779.339 2559.79 716.895 2638.33 724.079 2700.13C731.677 2765.34 794.536 2857.51 824.515 2921.17C867.894 3013.34 933.654 3153.06 959.35 3431.88Z" fill="black"/>
<path d="M990.436 3428.47H989.469C988.86 3428.34 988.28 3428.07 987.762 3427.69C987.245 3427.31 986.8 3426.82 986.453 3426.24C986.106 3425.66 985.865 3425.02 985.742 3424.33C985.619 3423.65 985.618 3422.95 985.739 3422.27C1062 3008.84 905.335 2714.07 808.491 2655.05C807.416 2654.37 806.624 2653.24 806.288 2651.9C805.952 2650.57 806.098 2649.14 806.695 2647.93C806.971 2647.3 807.358 2646.75 807.833 2646.3C808.307 2645.84 808.859 2645.51 809.455 2645.3C810.05 2645.1 810.676 2645.04 811.294 2645.11C811.913 2645.19 812.51 2645.41 813.05 2645.76C915.005 2707.72 1073.05 3000.32 994.995 3424.44C994.726 3425.57 994.136 3426.58 993.314 3427.31C992.492 3428.03 991.482 3428.44 990.436 3428.47V3428.47Z" fill="white"/>
<path d="M959.348 3431.88C963.928 3354.36 954.964 3276.6 932.961 3202.94C896.765 3089.08 839.985 2983.6 725.735 2944.56C611.484 2905.53 522.653 2998.16 578.881 3083.04C635.108 3167.93 844.406 3220.75 885.161 3487.02L959.348 3431.88Z" fill="#DD6060"/>
<path d="M926.893 3461.46C925.659 3461.31 924.527 3460.63 923.729 3459.56C922.932 3458.49 922.531 3457.12 922.61 3455.73C939.741 3241.35 810.708 3028.68 641.059 2991.04C640.45 2990.91 639.87 2990.64 639.353 2990.26C638.835 2989.88 638.39 2989.38 638.044 2988.81C637.697 2988.23 637.455 2987.58 637.333 2986.9C637.21 2986.22 637.209 2985.52 637.329 2984.84C637.427 2984.15 637.651 2983.48 637.986 2982.89C638.322 2982.3 638.763 2981.79 639.281 2981.4C639.8 2981.01 640.384 2980.74 640.999 2980.61C641.614 2980.48 642.246 2980.5 642.855 2980.66C817.063 3019.07 949.411 3236.86 932.004 3456.35C932.009 3457.08 931.876 3457.8 931.613 3458.46C931.35 3459.13 930.964 3459.72 930.48 3460.21C929.996 3460.69 929.426 3461.05 928.808 3461.27C928.189 3461.49 927.536 3461.55 926.893 3461.46V3461.46Z" fill="white"/>
<path d="M5096.54 5161.95C5096.54 5161.95 5118.22 4932.08 5246.01 4777.65C5373.8 4623.21 5510.43 4624.61 5563.76 4680.06C5617.09 4735.52 5562.24 4821.79 5443.57 4905.91C5341.89 4977.93 5207.47 5141.35 5166.16 5251.64L5096.54 5161.95Z" fill="#DD6060"/>
<path opacity="0.2" d="M5096.54 5161.95C5096.54 5161.95 5118.22 4932.08 5246.01 4777.65C5373.8 4623.21 5510.43 4624.61 5563.76 4680.06C5617.09 4735.52 5562.24 4821.79 5443.57 4905.91C5341.89 4977.93 5207.47 5141.35 5166.16 5251.64L5096.54 5161.95Z" fill="black"/>
<path d="M5125.95 5205.31H5124.71C5123.51 5205.02 5122.46 5204.2 5121.78 5203.04C5121.11 5201.88 5120.87 5200.47 5121.12 5199.12C5175.41 4964.6 5357.77 4728.38 5511.39 4693.68C5512 4693.54 5512.63 4693.53 5513.24 4693.66C5513.85 4693.79 5514.43 4694.05 5514.95 4694.43C5515.47 4694.81 5515.92 4695.31 5516.27 4695.88C5516.62 4696.46 5516.86 4697.1 5516.99 4697.79C5517.12 4698.47 5517.12 4699.17 5517.01 4699.85C5516.89 4700.54 5516.66 4701.19 5516.32 4701.77C5515.98 4702.35 5515.54 4702.86 5515.03 4703.25C5514.51 4703.64 5513.94 4703.92 5513.33 4704.06C5362.88 4738.14 5183.84 4970.8 5130.24 5201.91C5129.91 5202.89 5129.32 5203.74 5128.56 5204.34C5127.8 5204.95 5126.89 5205.29 5125.95 5205.31V5205.31Z" fill="white"/>
<path d="M5118.63 5700.68C5118.63 5700.68 5212.99 5730.74 5281.09 5678.22C5339.26 5633.3 5324.75 5585.28 5331.52 5548.57C5338.29 5511.86 5366.75 5491.73 5414.41 5484.76C5472.99 5476.24 5527.69 5465.86 5537.92 5396.46C5547.03 5335.28 5456.96 5302.28 5483.76 5242.49C5504.07 5197.42 5549.66 5167.37 5587.24 5134.06C5624.81 5100.76 5602.43 5027.96 5512.64 5027.8C5401.29 5027.8 5378.08 5074.27 5328.48 5081.55C5278.88 5088.83 5251.12 5056.77 5196.82 5064.82C5136.73 5073.65 5107.3 5138.09 5105.92 5218.48L5118.63 5700.68Z" fill="#DD6060"/>
<path d="M5112.44 5471.28H5110.92C5110.33 5471.06 5109.78 5470.7 5109.31 5470.23C5108.84 5469.77 5108.46 5469.2 5108.19 5468.56C5107.92 5467.93 5107.76 5467.24 5107.73 5466.53C5107.71 5465.83 5107.8 5465.13 5108.02 5464.47C5157.62 5307.56 5425.08 5089.15 5537.12 5066.84C5537.73 5066.71 5538.37 5066.72 5538.98 5066.86C5539.6 5067.01 5540.18 5067.29 5540.7 5067.7C5541.21 5068.1 5541.65 5068.62 5541.99 5069.22C5542.32 5069.82 5542.54 5070.48 5542.64 5071.18C5542.76 5071.87 5542.75 5072.58 5542.62 5073.27C5542.49 5073.96 5542.24 5074.62 5541.88 5075.19C5541.52 5075.77 5541.06 5076.26 5540.52 5076.64C5539.99 5077.01 5539.4 5077.26 5538.77 5077.37C5428.25 5099.37 5165.77 5313.75 5117 5467.72C5116.64 5468.76 5116.02 5469.65 5115.21 5470.28C5114.39 5470.92 5113.43 5471.27 5112.44 5471.28Z" fill="white"/>
<path d="M5477.98 5379.27C5477.25 5379.48 5476.49 5379.48 5475.77 5379.27C5406.69 5339.16 5288.44 5309.88 5197.81 5331.72C5196.62 5331.87 5195.42 5331.53 5194.45 5330.75C5193.47 5329.97 5192.79 5328.81 5192.53 5327.5C5192.28 5326.19 5192.46 5324.82 5193.05 5323.65C5193.64 5322.49 5194.6 5321.61 5195.74 5321.19C5288.57 5298.88 5409.04 5328.78 5480.19 5369.83C5480.75 5370.14 5481.24 5370.57 5481.65 5371.1C5482.05 5371.63 5482.36 5372.24 5482.55 5372.9C5482.75 5373.57 5482.82 5374.26 5482.77 5374.96C5482.72 5375.65 5482.55 5376.33 5482.26 5376.95C5481.77 5377.7 5481.12 5378.3 5480.38 5378.71C5479.63 5379.11 5478.81 5379.31 5477.98 5379.27V5379.27Z" fill="white"/>
<path d="M5245.46 5276.58C5244.21 5276.58 5243.02 5276.02 5242.14 5275.04C5241.25 5274.05 5240.76 5272.71 5240.76 5271.31C5240.76 5177.6 5213.13 5131.9 5212.44 5131.9C5211.71 5130.75 5211.41 5129.32 5211.62 5127.93C5211.83 5126.53 5212.52 5125.29 5213.54 5124.47C5214.57 5123.65 5215.85 5123.32 5217.09 5123.55C5218.33 5123.78 5219.44 5124.56 5220.18 5125.71C5221.42 5127.57 5250.43 5174.19 5250.29 5271.62C5250.19 5272.98 5249.63 5274.24 5248.74 5275.16C5247.84 5276.08 5246.67 5276.58 5245.46 5276.58V5276.58Z" fill="white"/>
<path d="M1753.43 12.7801L1761.72 7.35869C1769.12 3.15305 1777.31 0.961548 1785.62 0.961548C1793.92 0.961548 1802.11 3.15305 1809.52 7.35869L3164.64 884.709C3171.6 889.805 3177.39 896.669 3181.54 904.742C3185.69 912.816 3188.09 921.873 3188.54 931.179V3048.81C3188.07 3058.11 3185.66 3067.16 3181.51 3075.23C3177.36 3083.3 3171.58 3090.16 3164.64 3095.28L3156.35 3100.55C3148.96 3104.82 3140.76 3107.06 3132.45 3107.06C3124.13 3107.06 3115.94 3104.82 3108.55 3100.55L1753.43 2223.35C1746.45 2218.27 1740.65 2211.41 1736.5 2203.34C1732.34 2195.26 1729.95 2186.19 1729.53 2176.88V59.25C1729.96 49.9409 1732.36 40.8794 1736.51 32.8039C1740.66 24.7284 1746.46 17.8675 1753.43 12.7801Z" fill="#FAFAFA"/>
<path d="M3188.52 1989.92V931.179C3188.28 921.81 3185.85 912.675 3181.47 904.691L3104.11 954.879V3097.91L3108.39 3100.55C3115.78 3104.82 3123.98 3107.06 3132.29 3107.06C3140.61 3107.06 3148.8 3104.82 3156.19 3100.55L3164.48 3095.28C3171.42 3090.16 3177.2 3083.3 3181.35 3075.23C3185.5 3067.16 3187.91 3058.11 3188.38 3048.81L3188.52 1989.92Z" fill="#E0E0E0"/>
<path d="M1753.41 43.7653L3108.53 920.961C3115.47 926.075 3121.25 932.943 3125.4 941.013C3129.55 949.082 3131.96 958.13 3132.43 967.43V3085.06C3132.43 3102.25 3121.65 3109.22 3108.53 3100.55L1753.41 2223.35C1746.43 2218.28 1740.63 2211.42 1736.48 2203.34C1732.32 2195.26 1729.94 2186.2 1729.51 2176.88V59.2553C1729.51 42.2163 1740.15 35.2459 1753.41 43.7653Z" fill="#F5F5F5"/>
<path d="M1921.67 298.112L2940.11 957.364C2947.09 962.442 2952.89 969.301 2957.05 977.378C2961.2 985.456 2963.59 994.522 2964.01 1003.83V1087.17C2964.01 1104.21 2953.38 1111.18 2940.11 1102.66L1921.67 443.718C1914.72 438.603 1908.94 431.735 1904.79 423.666C1900.64 415.596 1898.24 406.548 1897.77 397.248V313.602C1897.77 296.408 1908.54 288.818 1921.67 298.112Z" fill="#E0E0E0"/>
<path d="M2137.34 1038.17C2192.11 1002.71 2192.11 887.719 2137.33 781.329C2082.55 674.94 1993.73 617.441 1938.95 652.9C1884.18 688.36 1884.18 803.352 1938.96 909.741C1993.74 1016.13 2082.56 1073.63 2137.34 1038.17Z" fill="#E0E0E0"/>
<path d="M2039.24 722.527C2011.61 704.869 1990.06 719.12 1990.06 754.282C1990.95 773.435 1995.86 792.081 2004.41 808.693C2012.96 825.305 2024.9 839.41 2039.24 849.855C2066.87 867.513 2088.43 853.262 2088.43 818.875C2087.63 799.594 2082.75 780.802 2074.2 764.05C2065.65 747.298 2053.67 733.066 2039.24 722.527Z" fill="#DD6060"/>
<path d="M2052.09 875.721L2024.46 857.598C1979.7 828.786 1943.51 852.176 1943.51 909.954V917.853C1966.74 962.414 1999.32 999.951 2038.42 1027.21C2075.03 1050.91 2107.49 1054.16 2133.19 1040.53V1032.32C2131.58 1000.92 2123.4 970.375 2109.31 943.169C2095.22 915.963 2075.62 892.857 2052.09 875.721Z" fill="#DD6060"/>
<path d="M1927.75 1101.26L2148.79 1244.23C2157.31 1250.25 2164.46 1258.43 2169.64 1268.12C2174.82 1277.81 2177.9 1288.73 2178.63 1299.99C2178.63 1319.98 2164.81 1327.57 2148.79 1316.88L1927.75 1174.06C1919.19 1168.06 1912.02 1159.88 1906.82 1150.19C1901.61 1140.51 1898.51 1129.58 1897.77 1118.3C1897.77 1098.16 1911.17 1090.57 1927.75 1101.26Z" fill="#E0E0E0"/>
<path d="M1927.75 1246.56L2148.79 1389.53C2157.29 1395.53 2164.43 1403.69 2169.61 1413.35C2174.79 1423.01 2177.88 1433.9 2178.63 1445.14C2178.63 1465.27 2164.81 1472.86 2148.79 1462.18L1927.75 1319.2C1919.19 1313.21 1912.01 1305.04 1906.8 1295.35C1901.59 1285.66 1898.5 1274.72 1897.77 1263.44C1897.77 1243.46 1911.17 1235.87 1927.75 1246.56Z" fill="#E0E0E0"/>
<path d="M1927.75 1391.7L2148.79 1534.67C2157.24 1540.66 2164.32 1548.78 2169.48 1558.38C2174.64 1567.98 2177.72 1578.8 2178.5 1589.97C2178.5 1609.95 2164.68 1617.54 2148.66 1606.86L1927.61 1464.04C1919.06 1458.04 1911.89 1449.86 1906.68 1440.17C1901.48 1430.48 1898.38 1419.56 1897.64 1408.27C1897.77 1388.6 1911.17 1381.01 1927.75 1391.7Z" fill="#E0E0E0"/>
<path d="M1927.75 1537L2148.79 1679.97C2157.28 1685.99 2164.38 1694.16 2169.54 1703.82C2174.7 1713.48 2177.77 1724.35 2178.5 1735.58C2178.5 1755.72 2164.68 1763.31 2148.66 1752.62L1927.61 1609.65C1919.06 1603.66 1911.88 1595.48 1906.67 1585.79C1901.46 1576.1 1898.37 1565.17 1897.64 1553.88C1897.77 1533.9 1911.17 1526.31 1927.75 1537Z" fill="#E0E0E0"/>
<path d="M1927.75 1755.08L2148.79 1897.9C2157.47 1904.29 2164.69 1912.87 2169.88 1922.96C2175.06 1933.05 2178.06 1944.36 2178.63 1955.99V2096.48C2178.63 2117.86 2164.81 2126.53 2148.79 2115.84L1927.75 1973.03C1919.02 1966.67 1911.76 1958.1 1906.55 1948.01C1901.34 1937.91 1898.33 1926.58 1897.77 1914.94V1774.44C1897.77 1752.91 1911.17 1744.86 1927.75 1755.08Z" fill="#DD6060"/>
<path d="M2376.6 810.512L2934.18 1171.74C2942.69 1177.74 2949.82 1185.9 2955 1195.56C2960.19 1205.22 2963.27 1216.11 2964.02 1227.35C2964.02 1247.48 2950.21 1255.07 2934.18 1244.39L2376.6 883.47C2368.1 877.465 2360.96 869.306 2355.78 859.647C2350.6 849.989 2347.51 839.102 2346.76 827.861C2346.76 807.414 2360.16 799.979 2376.6 810.512Z" fill="#DD6060"/>
<path d="M2376.6 955.81L2934.18 1316.73C2942.69 1322.73 2949.82 1330.89 2955 1340.55C2960.19 1350.21 2963.27 1361.09 2964.02 1372.33C2964.02 1392.47 2950.21 1400.06 2934.18 1389.37L2376.6 1028.46C2368.1 1022.45 2360.96 1014.29 2355.78 1004.63C2350.6 994.977 2347.51 984.089 2346.76 972.849C2346.76 952.712 2360.16 945.122 2376.6 955.81Z" fill="#DD6060"/>
<path d="M2376.6 1101.1L2934.18 1462.02C2942.69 1468.02 2949.82 1476.18 2955 1485.84C2960.19 1495.5 2963.27 1506.39 2964.02 1517.63C2964.02 1537.76 2950.21 1545.35 2934.18 1534.67L2376.6 1173.75C2368.1 1167.75 2360.96 1159.59 2355.78 1149.93C2350.6 1140.27 2347.51 1129.38 2346.76 1118.14C2346.76 1098 2360.16 1090.41 2376.6 1101.1Z" fill="#DD6060"/>
<path d="M4284.6 1352.97L4337.1 1319.05C4346.37 1313.78 4356.62 1311.04 4367.01 1311.04C4377.4 1311.04 4387.65 1313.78 4396.92 1319.05L5571.2 2079.61C5579.92 2085.96 5587.19 2094.53 5592.4 2104.62C5597.61 2114.72 5600.61 2126.05 5601.18 2137.69V3803.95C5600.61 3815.59 5597.61 3826.92 5592.4 3837.02C5587.19 3847.11 5579.92 3855.68 5571.2 3862.03L5518.84 3895.96C5509.57 3901.22 5499.32 3903.97 5488.93 3903.97C5478.54 3903.97 5468.29 3901.22 5459.02 3895.96L4284.05 3135.4C4275.37 3129.01 4268.14 3120.43 4262.96 3110.34C4257.78 3100.25 4254.78 3088.94 4254.21 3077.31V1411.06C4254.84 1399.38 4257.92 1388.03 4263.2 1377.94C4268.49 1367.84 4275.82 1359.29 4284.6 1352.97V1352.97Z" fill="#455A64"/>
<path d="M5601.6 2970.74V2137.69C5601.27 2125.97 5598.22 2114.55 5592.76 2104.54L5433.2 2207.86V3878.91L5459.45 3895.95C5468.72 3901.22 5478.96 3903.96 5489.36 3903.96C5499.75 3903.96 5510 3901.22 5519.27 3895.95L5571.63 3862.03C5580.35 3855.68 5587.61 3847.11 5592.82 3837.01C5598.03 3826.92 5601.04 3815.59 5601.6 3803.94V2970.74Z" fill="#263238"/>
<path d="M4284.62 1391.69L5458.9 2152.25C5467.59 2158.64 5474.81 2167.22 5479.99 2177.31C5485.18 2187.4 5488.17 2198.71 5488.74 2210.34V3876.59C5488.74 3897.97 5474.93 3906.64 5458.9 3895.95L4283.93 3135.4C4275.25 3129.01 4268.02 3120.43 4262.84 3110.34C4257.66 3100.25 4254.66 3088.94 4254.09 3077.31V1411.06C4254.78 1389.68 4268.18 1381.01 4284.62 1391.69Z" fill="#37474F"/>
<path d="M5375.18 2206L4368.75 1554.49C4352.17 1543.8 4338.91 1552.48 4338.91 1573.86V2840.62C4339.48 2852.25 4342.48 2863.56 4347.66 2873.65C4352.85 2883.74 4360.07 2892.32 4368.75 2898.71L5375.18 3550.22C5391.76 3560.9 5405.16 3552.23 5405.16 3530.85V2264.09C5404.6 2252.44 5401.59 2241.11 5396.38 2231.02C5391.17 2220.92 5383.9 2212.35 5375.18 2206V2206Z" fill="white"/>
<path d="M4571.84 1837.8C4600.01 1858.45 4623.45 1886.25 4640.25 1918.95C4657.05 1951.65 4666.74 1988.32 4668.55 2026C4668.55 2095.4 4625.17 2123.43 4571.84 2088.74C4543.66 2068.1 4520.21 2040.31 4503.41 2007.61C4486.61 1974.91 4476.92 1938.22 4475.14 1900.53C4475 1830.98 4518.38 1802.95 4571.84 1837.8Z" fill="#DD6060"/>
<path d="M4823.54 2608.58L4643.95 2304.05C4614.8 2254.79 4564.51 2252.16 4531.49 2298.32L4338.91 2565.83V2841.09C4339.48 2852.73 4342.48 2864.07 4347.69 2874.16C4352.9 2884.25 4360.17 2892.83 4368.89 2899.18L5375.18 3549.75C5391.76 3560.44 5405.16 3551.77 5405.16 3530.39V2816.3L5155.11 2222.88C5132.59 2169.44 5090.31 2165.73 5060.89 2214.68L4823.54 2608.58Z" fill="#DD6060"/>
<path d="M4539.11 5111.75L4868.32 4898.61C4885.74 4885.89 4900.24 4868.74 4910.63 4848.55C4921.03 4828.37 4927.03 4805.71 4928.14 4782.44V2684.94C4927 2661.67 4921 2639.03 4910.6 2618.85C4900.21 2598.66 4885.73 2581.51 4868.32 2568.77L2631.11 1120.46C2612.57 1109.91 2592.07 1104.42 2571.29 1104.42C2550.5 1104.42 2530.01 1109.91 2511.47 1120.46L2182.12 1333.6C2164.71 1346.34 2150.22 1363.49 2139.83 1383.68C2129.44 1403.86 2123.43 1426.51 2122.3 1449.78V3547.27C2123.43 3570.54 2129.44 3593.18 2139.83 3613.37C2150.22 3633.55 2164.71 3650.71 2182.12 3663.44L4420.16 5111.75C4438.61 5122.17 4458.98 5127.6 4479.63 5127.6C4500.29 5127.6 4520.66 5122.17 4539.11 5111.75V5111.75Z" fill="#455A64"/>
<path d="M4927.71 2684.94C4927 2661.6 4921.01 2638.84 4910.31 2618.8L4423.19 2934.48V5113.61C4441.35 5123.15 4461.21 5127.93 4481.26 5127.61C4501.32 5127.29 4521.05 5121.87 4538.96 5111.75L4868.45 4898.45C4885.76 4885.69 4900.14 4868.54 4910.44 4848.38C4920.74 4828.22 4926.65 4805.63 4927.71 4782.43V2684.94Z" fill="#37474F"/>
<path d="M4419.45 2860.13L2182.1 1411.82C2149.09 1390.44 2122.28 1407.79 2122.28 1450.54V3547.26C2123.42 3570.53 2129.43 3593.18 2139.82 3613.36C2150.21 3633.54 2164.7 3650.7 2182.1 3663.44L4420.14 5111.74C4453.16 5133.12 4479.96 5115.77 4479.96 5073.02V2975.53C4478.65 2952.32 4472.48 2929.79 4461.97 2909.74C4451.46 2889.7 4436.9 2872.7 4419.45 2860.13V2860.13Z" fill="#37474F"/>
<path d="M4615.78 2732.34C4633.18 2745.08 4647.67 2762.23 4658.06 2782.41C4668.46 2802.6 4674.46 2825.24 4675.6 2848.51V5023.3L4731.69 4987.05V2812.11C4730.55 2788.84 4724.54 2766.2 4714.15 2746.01C4703.76 2725.83 4689.27 2708.67 4671.87 2695.94L2374.7 1208.9L2318.61 1245.3L4615.78 2732.34Z" fill="#263238"/>
<path d="M4671.85 2695.94L2378.55 1211.39L2320.67 1246.55L4615.9 2732.34C4633.57 2744.7 4648.12 2761.93 4658.17 2782.38L4714.26 2746.13C4704.22 2725.58 4689.61 2708.3 4671.85 2695.94V2695.94Z" fill="#37474F"/>
<path d="M4324.14 2361.81L4284.63 2336.25C4275.36 2330.99 4265.11 2328.24 4254.72 2328.24C4244.32 2328.24 4234.08 2330.99 4224.81 2336.25L4072.84 2434.46L4047.56 2425.94V2462.19C4047.91 2466.36 4049.24 2470.36 4051.43 2473.76C4053.61 2477.17 4056.57 2479.86 4059.99 2481.55L4112.35 2515.47C4121.62 2520.74 4131.87 2523.48 4142.26 2523.48C4152.65 2523.48 4162.9 2520.74 4172.17 2515.47L4336.85 2408.9C4340.24 2407.19 4343.17 2404.49 4345.33 2401.09C4347.49 2397.68 4348.81 2393.7 4349.14 2389.54V2353.14L4324.14 2361.81Z" fill="#263238"/>
<path d="M4337.11 2333.47L4284.62 2299.55C4275.35 2294.28 4265.1 2291.54 4254.71 2291.54C4244.32 2291.54 4234.07 2294.28 4224.8 2299.55L4060.26 2406.27C4056.63 2407.6 4053.48 2410.18 4051.24 2413.65C4049 2417.11 4047.79 2421.28 4047.79 2425.56C4047.79 2429.84 4049 2434 4051.24 2437.47C4053.48 2440.93 4056.63 2443.51 4060.26 2444.84L4112.62 2478.92C4121.89 2484.19 4132.14 2486.93 4142.53 2486.93C4152.92 2486.93 4163.17 2484.19 4172.44 2478.92L4337.11 2372.19C4340.72 2370.82 4343.86 2368.22 4346.08 2364.74C4348.3 2361.27 4349.49 2357.1 4349.49 2352.83C4349.49 2348.56 4348.3 2344.39 4346.08 2340.92C4343.86 2337.45 4340.72 2334.84 4337.11 2333.47V2333.47Z" fill="#455A64"/>
<path d="M2977.3 1490.04L2938.35 1464.48C2929.05 1459.22 2918.78 1456.47 2908.37 1456.47C2897.95 1456.47 2887.68 1459.22 2878.39 1464.48L2726.42 1562.69L2701.14 1554.17V1589.95C2701.49 1594.13 2702.82 1598.13 2705.01 1601.53C2707.19 1604.93 2710.15 1607.62 2713.57 1609.31L2765.93 1643.24C2775.2 1648.5 2785.45 1651.25 2795.84 1651.25C2806.24 1651.25 2816.48 1648.5 2825.75 1643.24L2990.43 1536.67C2993.84 1534.98 2996.79 1532.29 2998.95 1528.88C3001.12 1525.47 3002.42 1521.47 3002.72 1517.3V1481.52L2977.3 1490.04Z" fill="#263238"/>
<path d="M2990.28 1462.16L2937.79 1428.08C2928.52 1422.81 2918.27 1420.07 2907.88 1420.07C2897.48 1420.07 2887.24 1422.81 2877.97 1428.08L2713.43 1534.81C2709.82 1536.18 2706.69 1538.79 2704.47 1542.26C2702.25 1545.73 2701.05 1549.9 2701.05 1554.17C2701.05 1558.44 2702.25 1562.61 2704.47 1566.08C2706.69 1569.55 2709.82 1572.16 2713.43 1573.53L2765.79 1607.46C2775.06 1612.72 2785.31 1615.47 2795.7 1615.47C2806.09 1615.47 2816.34 1612.72 2825.61 1607.46L2990.28 1500.88C2993.89 1499.51 2997.03 1496.91 2999.25 1493.43C3001.47 1489.96 3002.66 1485.79 3002.66 1481.52C3002.66 1477.25 3001.47 1473.08 2999.25 1469.61C2997.03 1466.14 2993.89 1463.53 2990.28 1462.16V1462.16Z" fill="#455A64"/>
<path d="M3413.02 1481.52V1699.46L3300.84 1772.11V1439.7C3300.84 1422.5 3311.48 1415.69 3324.74 1424.21L3413.02 1481.52Z" fill="#263238"/>
<path d="M4002.09 1712.49V2117.55L3919.2 2171.61L3863.11 2135.21V1802.95C3862.64 1793.65 3860.24 1784.6 3856.09 1776.53C3851.94 1768.46 3846.16 1761.59 3839.21 1756.48L3413.02 1481.53L3325.15 1424.22C3311.34 1415.7 3301.25 1422.51 3301.25 1439.71V1771.97L3245.03 1735.57V1330.66C3244.89 1328.91 3244.89 1327.14 3245.03 1325.39C3246.14 1317.04 3248.82 1309.05 3252.89 1301.95C3256.96 1294.84 3262.34 1288.79 3268.65 1284.19L3304.16 1261.11C3311.56 1256.9 3319.75 1254.71 3328.06 1254.71C3336.36 1254.71 3344.55 1256.9 3351.96 1261.11L3977.5 1666.02C3984.58 1671.03 3990.5 1677.86 3994.77 1685.94C3999.05 1694.02 4001.56 1703.11 4002.09 1712.49Z" fill="#455A64"/>
<path d="M3918.1 1766.54V2171.6L3862.01 2135.2V1802.94C3861.54 1793.64 3859.13 1784.59 3854.98 1776.52C3850.83 1768.45 3845.05 1761.59 3838.11 1756.47L3413.02 1481.53L3325.15 1424.21C3311.34 1415.69 3301.25 1422.51 3301.25 1439.7V1771.96L3245.03 1735.56V1330.65C3244.89 1328.9 3244.89 1327.14 3245.03 1325.39C3247.1 1312.22 3256.91 1307.57 3268.65 1315.16L3894.2 1720.07C3901.13 1725.19 3906.91 1732.06 3911.06 1740.13C3915.21 1748.2 3917.62 1757.24 3918.1 1766.54V1766.54Z" fill="#37474F"/>
<path d="M4759.84 5840.41L4815.93 5804.01L4759.84 3990.91C4759.24 3979.27 4756.22 3967.95 4751.01 3957.87C4745.81 3947.78 4738.56 3939.2 4729.86 3932.82L3667.35 3244.91C3648.71 3231.52 3634.23 3211.99 3625.9 3188.99L3592.33 3080.56C3584.04 3057.66 3569.54 3038.27 3550.88 3025.11L3050.09 2710.97C3033.51 2700.6 3019.83 2709.42 3019.83 2730.8V4675.56C3020.44 4687.2 3023.47 4698.51 3028.67 4708.6C3033.88 4718.68 3041.12 4727.26 3049.81 4733.65L4759.84 5840.41Z" fill="#DD6060"/>
<path opacity="0.2" d="M4759.84 5840.41L4815.93 5804.01L4759.84 3990.91C4759.24 3979.27 4756.22 3967.95 4751.01 3957.87C4745.81 3947.78 4738.56 3939.2 4729.86 3932.82L3667.35 3244.91C3648.71 3231.52 3634.23 3211.99 3625.9 3188.99L3592.33 3080.56C3584.04 3057.66 3569.54 3038.27 3550.88 3025.11L3050.09 2710.97C3033.51 2700.6 3019.83 2709.42 3019.83 2730.8V4675.56C3020.44 4687.2 3023.47 4698.51 3028.67 4708.6C3033.88 4718.68 3041.12 4727.26 3049.81 4733.65L4759.84 5840.41Z" fill="black"/>
<path d="M3941.97 2768.13L5128.69 3536.43C5135.66 3541.51 5141.46 3548.37 5145.62 3556.45C5149.77 3564.53 5152.16 3573.59 5152.59 3582.9V5773.18C5152.59 5790.37 5141.95 5797.19 5128.69 5788.67L3941.97 5020.52C3935.02 5015.42 3929.24 5008.55 3925.09 5000.48C3920.93 4992.41 3918.53 4983.36 3918.07 4974.06V2783.62C3918.07 2767.2 3928.71 2759.61 3941.97 2768.13Z" fill="white"/>
<g opacity="0.5">
<path opacity="0.5" d="M5139.45 5800.15C5134.57 5799.93 5129.82 5798.33 5125.64 5795.5L3938.92 5027.2C3930.86 5021.47 3924.15 5013.65 3919.34 5004.4C3914.53 4995.16 3911.77 4984.76 3911.29 4974.07V2783.64C3910.68 2778.91 3911.34 2774.08 3913.2 2769.78C3915.06 2765.48 3918.02 2761.91 3921.72 2759.52C3925.41 2757.13 3929.65 2756.04 3933.9 2756.39C3938.15 2756.74 3942.21 2758.52 3945.55 2761.49L5132.27 3529.63C5140.33 3535.4 5147.04 3543.24 5151.85 3552.51C5156.66 3561.78 5159.42 3572.21 5159.9 3582.92V5773.19C5160.23 5777.89 5159.45 5782.6 5157.63 5786.84C5155.81 5791.09 5153.01 5794.72 5149.54 5797.36C5146.46 5799.3 5142.98 5800.27 5139.45 5800.15ZM3931.32 2772.33C3930.37 2772.08 3929.38 2772.08 3928.42 2772.33C3927.13 2773.67 3926.14 2775.34 3925.54 2777.2C3924.94 2779.06 3924.74 2781.05 3924.97 2783.02V4974.07C3925.49 4981.92 3927.6 4989.53 3931.14 4996.32C3934.68 5003.11 3939.57 5008.91 3945.42 5013.26L5132.13 5781.56C5133.54 5782.79 5135.2 5783.61 5136.96 5783.94C5138.72 5784.26 5140.53 5784.08 5142.21 5783.42C5143.53 5782.09 5144.53 5780.42 5145.13 5778.56C5145.73 5776.69 5145.92 5774.69 5145.67 5772.73V3582.92C5145.24 3574.96 5143.16 3567.23 5139.62 3560.32C5136.07 3553.41 5131.14 3547.52 5125.22 3543.11L3938.51 2774.96C3936.38 2773.35 3933.89 2772.44 3931.32 2772.33V2772.33Z" fill="#E0E0E0"/>
</g>
<path d="M4060.24 3062.59L4617.68 3423.51C4626.22 3429.51 4633.37 3437.69 4638.56 3447.38C4643.75 3457.07 4646.82 3468 4647.52 3479.27C4647.52 3499.25 4633.7 3506.84 4617.68 3496.16L4060.24 3135.4C4051.69 3129.39 4044.52 3121.22 4039.31 3111.53C4034.1 3101.84 4031 3090.91 4030.26 3079.63C4029.71 3059.49 4043.52 3051.9 4060.24 3062.59Z" fill="#37474F"/>
<path d="M4060.21 3280.69L5010.55 3895.8C5019.09 3901.77 5026.26 3909.92 5031.47 3919.59C5036.67 3929.25 5039.78 3940.15 5040.53 3951.41C5040.53 3971.54 5026.72 3979.13 5010.69 3968.44L4060.35 3353.34C4051.79 3347.35 4044.62 3339.17 4039.41 3329.48C4034.2 3319.79 4031.1 3308.86 4030.37 3297.58C4029.68 3278.37 4043.5 3270 4060.21 3280.69Z" fill="#E0E0E0"/>
<path d="M4060.21 3498.64L5010.55 4113.74C5019.09 4119.72 5026.26 4127.87 5031.47 4137.53C5036.67 4147.19 5039.78 4158.09 5040.53 4169.35C5040.53 4189.49 5026.72 4197.08 5010.69 4186.39L4060.35 3571.28C4051.79 3565.29 4044.62 3557.12 4039.41 3547.43C4034.2 3537.74 4031.1 3526.81 4030.37 3515.52C4029.68 3495.23 4043.5 3487.95 4060.21 3498.64Z" fill="#E0E0E0"/>
<path d="M4060.24 3716.58L5010.58 4331.69C5019.14 4337.68 5026.31 4345.85 5031.52 4355.54C5036.73 4365.23 5039.83 4376.17 5040.56 4387.45C5040.56 4407.43 5026.74 4415.02 5010.72 4404.33L4060.24 3789.54C4051.7 3783.56 4044.53 3775.41 4039.33 3765.75C4034.12 3756.09 4031.01 3745.19 4030.26 3733.93C4029.71 3713.48 4043.52 3705.89 4060.24 3716.58Z" fill="#E0E0E0"/>
<path d="M4060.21 3934.52L5010.55 4549.63C5019.11 4555.62 5026.29 4563.79 5031.5 4573.48C5036.71 4583.17 5039.8 4594.11 5040.53 4605.39C5040.53 4625.37 5026.72 4632.96 5010.69 4622.27L4060.35 4007.17C4051.81 4001.19 4044.65 3993.04 4039.44 3983.38C4034.23 3973.72 4031.12 3962.82 4030.37 3951.56C4029.68 3931.42 4043.5 3923.83 4060.21 3934.52Z" fill="#E0E0E0"/>
<path d="M4060.21 4152.47L5010.55 4767.58C5019.1 4773.58 5026.27 4781.76 5031.48 4791.45C5036.69 4801.13 5039.79 4812.06 5040.53 4823.34C5040.53 4843.48 5026.72 4851.07 5010.69 4840.38L4060.35 4225.12C4051.81 4219.14 4044.65 4210.99 4039.44 4201.33C4034.23 4191.67 4031.12 4180.77 4030.37 4169.51C4029.68 4149.38 4043.5 4141.79 4060.21 4152.47Z" fill="#E0E0E0"/>
<path d="M4060.24 4370.57L5010.58 4985.68C5019.12 4991.65 5026.28 4999.8 5031.49 5009.46C5036.7 5019.13 5039.81 5030.03 5040.56 5041.28C5040.56 5061.42 5026.74 5069.01 5010.72 5058.32L4060.24 4443.22C4051.68 4437.22 4044.51 4429.05 4039.3 4419.36C4034.09 4409.67 4030.99 4398.74 4030.26 4387.45C4029.71 4367.47 4043.52 4359.88 4060.24 4370.57Z" fill="#E0E0E0"/>
<path d="M4060.21 4588.51L5010.55 5203.61C5019.09 5209.59 5026.26 5217.74 5031.47 5227.4C5036.67 5237.06 5039.78 5247.96 5040.53 5259.22C5040.53 5279.36 5026.72 5286.95 5010.69 5276.26L4060.35 4661.15C4051.79 4655.16 4044.62 4646.99 4039.41 4637.3C4034.2 4627.61 4031.1 4616.68 4030.37 4605.39C4029.68 4585.41 4043.5 4577.82 4060.21 4588.51Z" fill="#E0E0E0"/>
<path d="M3773.55 2877.03L4960.27 3645.33C4967.26 3650.4 4973.08 3657.25 4977.26 3665.33C4981.44 3673.41 4983.85 3682.48 4984.31 3691.8V5882.08C4984.31 5899.12 4973.53 5906.09 4960.27 5897.57L3773.55 5129.27C3766.59 5124.17 3760.8 5117.31 3756.65 5109.23C3752.5 5101.16 3750.1 5092.1 3749.65 5082.8V2892.52C3749.65 2875.63 3760.43 2868.51 3773.55 2877.03Z" fill="white"/>
<path d="M4971.08 5908.87C4966.19 5908.66 4961.44 5907.06 4957.26 5904.23L3770.55 5136.08C3762.47 5130.33 3755.74 5122.49 3750.93 5113.22C3746.12 5103.94 3743.37 5093.51 3742.92 5082.79V2892.52C3742.37 2887.81 3743.08 2883.03 3744.96 2878.78C3746.83 2874.53 3749.79 2870.99 3753.45 2868.62C3757.12 2866.25 3761.33 2865.15 3765.55 2865.46C3769.77 2865.77 3773.82 2867.48 3777.18 2870.37L4963.89 3638.51C4971.98 3644.25 4978.71 3652.09 4983.52 3661.37C4988.33 3670.64 4991.07 3681.08 4991.52 3691.8V5882.08C4991.84 5886.76 4991.04 5891.46 4989.19 5895.69C4987.35 5899.91 4984.52 5903.5 4981.02 5906.09C4977.99 5908 4974.55 5908.96 4971.08 5908.87ZM3762.95 2881.05C3761.98 2881.03 3761.03 2881.3 3760.18 2881.83C3758.84 2883.13 3757.8 2884.79 3757.17 2886.66C3756.55 2888.53 3756.35 2890.54 3756.59 2892.52V5082.79C3757.03 5090.75 3759.1 5098.49 3762.64 5105.39C3766.19 5112.3 3771.12 5118.19 3777.04 5122.6L4963.75 5890.9C4964.92 5892.66 4966.62 5893.87 4968.54 5894.32C4970.45 5894.76 4972.44 5894.41 4974.14 5893.33C4975.83 5892.24 4977.12 5890.5 4977.75 5888.43C4978.38 5886.36 4978.32 5884.1 4977.57 5882.08V3691.8C4977.13 3683.83 4975.04 3676.08 4971.47 3669.17C4967.9 3662.26 4962.94 3656.38 4956.98 3651.99L3770.27 2883.69C3768.07 2882.11 3765.55 2881.21 3762.95 2881.05V2881.05Z" fill="#E0E0E0"/>
<path d="M3891.56 3171.49L4449 3532.41C4457.55 3538.4 4464.73 3546.57 4469.94 3556.26C4475.15 3565.95 4478.24 3576.89 4478.97 3588.17C4478.97 3608.15 4465.16 3615.74 4449 3605.05L3891.56 3244.14C3883.02 3238.16 3875.85 3230.01 3870.64 3220.35C3865.44 3210.69 3862.33 3199.79 3861.58 3188.53C3861.85 3168.39 3875.26 3160.8 3891.56 3171.49Z" fill="#E0E0E0"/>
<path d="M3891.56 3389.44L4841.9 4004.54C4850.41 4010.58 4857.54 4018.77 4862.72 4028.45C4867.9 4038.14 4870.99 4049.05 4871.74 4060.31C4871.74 4080.44 4857.92 4088.03 4841.9 4077.35L3891.56 3462.09C3883.02 3456.11 3875.85 3447.96 3870.64 3438.3C3865.44 3428.64 3862.33 3417.73 3861.58 3406.48C3861.85 3386.8 3875.26 3378.75 3891.56 3389.44Z" fill="#E0E0E0"/>
<path d="M3891.56 3607.53L4842.17 4223.25C4850.68 4229.26 4857.81 4237.42 4862.99 4247.08C4868.18 4256.74 4871.27 4267.62 4872.01 4278.86C4872.01 4299 4858.2 4306.59 4842.17 4295.9L3891.56 3680.18C3883 3674.18 3875.82 3666.01 3870.61 3656.32C3865.4 3646.63 3862.31 3635.7 3861.58 3624.41C3861.85 3604.43 3875.26 3596.84 3891.56 3607.53Z" fill="#E0E0E0"/>
<path d="M3891.56 3825.48L4842.17 4440.12C4850.68 4446.13 4857.81 4454.29 4862.99 4463.94C4868.18 4473.6 4871.27 4484.49 4872.01 4495.73C4872.01 4515.87 4858.2 4523.46 4842.17 4512.77L3891.56 3897.97C3883 3891.98 3875.82 3883.81 3870.61 3874.12C3865.4 3864.43 3862.31 3853.49 3861.58 3842.21C3861.85 3822.38 3875.26 3814.79 3891.56 3825.48Z" fill="#E0E0E0"/>
<path d="M3891.56 4043.41L4841.9 4658.52C4850.42 4664.54 4857.56 4672.72 4862.75 4682.41C4867.93 4692.1 4871.01 4703.02 4871.74 4714.28C4871.74 4734.27 4857.92 4741.86 4841.9 4731.17L3891.56 4116.06C3883.02 4110.08 3875.85 4101.93 3870.64 4092.27C3865.44 4082.61 3862.33 4071.71 3861.58 4060.45C3861.85 4040.32 3875.26 4032.73 3891.56 4043.41Z" fill="#E0E0E0"/>
<path d="M3891.56 4261.36L4841.9 4876.47C4850.42 4882.49 4857.56 4890.67 4862.75 4900.36C4867.93 4910.04 4871.01 4920.96 4871.74 4932.23C4871.74 4952.21 4857.92 4959.8 4841.9 4949.11L3891.56 4334.01C3883.02 4328.03 3875.85 4319.88 3870.64 4310.22C3865.44 4300.56 3862.33 4289.66 3861.58 4278.4C3861.85 4258.26 3875.26 4250.67 3891.56 4261.36Z" fill="#E0E0E0"/>
<path d="M3891.56 4479.31L4841.9 5094.41C4850.42 5100.43 4857.56 5108.62 4862.75 5118.3C4867.93 5127.99 4871.01 5138.91 4871.74 5150.18C4871.74 5170.31 4857.92 5177.9 4841.9 5167.22L3891.56 4551.96C3883.02 4545.98 3875.85 4537.83 3870.64 4528.17C3865.44 4518.51 3862.33 4507.6 3861.58 4496.35C3861.85 4476.21 3875.26 4468.62 3891.56 4479.31Z" fill="#E0E0E0"/>
<path d="M3891.56 4697.4L4841.9 5312.5C4850.4 5318.51 4857.54 5326.67 4862.72 5336.33C4867.9 5345.99 4870.99 5356.87 4871.74 5368.11C4871.74 5388.25 4857.92 5395.84 4841.9 5385.15L3891.56 4770.05C3883 4764.05 3875.82 4755.88 3870.61 4746.19C3865.4 4736.5 3862.31 4725.57 3861.58 4714.28C3861.85 4694.3 3875.26 4686.71 3891.56 4697.4Z" fill="#E0E0E0"/>
<path d="M4759.84 5840.41L4485.61 4171.06C4480.46 4147.46 4467.52 4126.92 4449.41 4113.59L2769.64 3026.19C2753.2 3015.51 2742.01 3024.03 2746.01 3044.94L3014.03 4676.18C3019.17 4699.78 3032.11 4720.32 3050.22 4733.65L4759.84 5840.41Z" fill="#DD6060"/>
<path d="M2683.44 3808.44V4892.74C2684.01 4904.38 2687.02 4915.71 2692.23 4925.81C2697.44 4935.9 2704.7 4944.47 2713.42 4950.82L3383.04 5384.54C3391.7 5390.63 3401.68 5393.96 3411.9 5394.17C3422.12 5394.38 3432.2 5391.46 3441.05 5385.72C3449.9 5379.99 3457.19 5371.65 3462.13 5361.62C3467.08 5351.59 3469.49 5340.23 3469.11 5328.78V4244.33C3468.54 4232.7 3465.54 4221.39 3460.36 4211.3C3455.17 4201.21 3447.95 4192.63 3439.27 4186.24L2769.51 3752.52C2760.86 3746.44 2750.9 3743.11 2740.69 3742.9C2730.48 3742.68 2720.41 3745.59 2711.56 3751.31C2702.72 3757.02 2695.42 3765.33 2690.47 3775.34C2685.52 3785.35 2683.09 3796.69 2683.44 3808.13V3808.44Z" fill="#455A64"/>
<path d="M3469.1 4786.94V4244.79C3468.75 4233.14 3465.75 4221.79 3460.4 4211.8L3376.13 4266.32V5381.6L3383.04 5386.09C3391.95 5391.38 3401.85 5394.23 3411.93 5394.42C3422.01 5394.61 3431.99 5392.13 3441.06 5387.18V5387.18C3449.32 5380.79 3456.12 5372.32 3460.92 5362.45C3465.72 5352.57 3468.38 5341.57 3468.69 5330.33L3469.1 4786.94Z" fill="#263238"/>
<path d="M2713.43 3789.54L3383.05 4223.26C3391.77 4229.61 3399.03 4238.18 3404.24 4248.27C3409.45 4258.37 3412.46 4269.7 3413.02 4281.34V5366.41C3413.02 5387.79 3399.21 5396.47 3383.05 5385.78L2713.43 4952.06C2704.71 4945.71 2697.44 4937.14 2692.23 4927.04C2687.02 4916.95 2684.01 4905.62 2683.45 4893.97V3809.68C2683.45 3787.06 2696.85 3778.39 2713.43 3789.54Z" fill="#37474F"/>
<path d="M2769.5 3897.97L3326.94 4258.73C3335.65 4265.1 3342.9 4273.67 3348.11 4283.76C3353.31 4293.86 3356.33 4305.18 3356.92 4316.82V5111.3C3356.92 5132.67 3343.1 5141.35 3326.94 5130.66L2769.5 4769.74C2760.78 4763.39 2753.51 4754.82 2748.3 4744.73C2743.1 4734.63 2740.09 4723.3 2739.52 4711.66V3917.49C2739.52 3896.11 2752.92 3887.44 2769.5 3897.97Z" fill="white"/>
<path d="M2874.5 4083.84C2893.78 4097.95 2909.82 4116.96 2921.32 4139.33C2932.81 4161.69 2939.45 4186.78 2940.68 4212.56C2940.68 4259.96 2911.11 4279.17 2874.5 4255.47C2855.2 4241.36 2839.14 4222.36 2827.62 4199.99C2816.1 4177.63 2809.44 4152.53 2808.19 4126.74C2808.19 4079.04 2837.89 4059.83 2874.5 4083.84Z" fill="#DD6060"/>
<path d="M3157.57 4365.92L3019.42 4593.62L2915.12 4417.35C2912.02 4410.84 2907.46 4405.35 2901.9 4401.41C2896.33 4397.47 2889.95 4395.21 2883.38 4394.87C2876.8 4394.53 2870.26 4396.1 2864.4 4399.45C2858.53 4402.79 2853.54 4407.78 2849.91 4413.94L2739.39 4568.84V4711.66C2739.95 4723.3 2742.96 4734.63 2748.17 4744.73C2753.38 4754.82 2760.65 4763.39 2769.37 4769.74L3326.81 5130.66C3343.39 5141.35 3356.79 5132.67 3356.79 5111.3V4714.29L3212 4370.72C3199.16 4339.74 3174.7 4337.57 3157.57 4365.92Z" fill="#DD6060"/>
<path opacity="0.2" d="M3157.57 4365.92L3019.42 4593.62L2915.12 4417.35C2912.02 4410.84 2907.46 4405.35 2901.9 4401.41C2896.33 4397.47 2889.95 4395.21 2883.38 4394.87C2876.8 4394.53 2870.26 4396.1 2864.4 4399.45C2858.53 4402.79 2853.54 4407.78 2849.91 4413.94L2739.39 4568.84V4711.66C2739.95 4723.3 2742.96 4734.63 2748.17 4744.73C2753.38 4754.82 2760.65 4763.39 2769.37 4769.74L3326.81 5130.66C3343.39 5141.35 3356.79 5132.67 3356.79 5111.3V4714.29L3212 4370.72C3199.16 4339.74 3174.7 4337.57 3157.57 4365.92Z" fill="black"/>
<path d="M574.835 3608.92C790.17 3463.37 968.299 3257.88 1091.94 3012.4C1215.58 2766.92 1280.54 2489.78 1280.51 2207.85V1657.65C1280.51 1640.61 1291.28 1633.64 1304.41 1642.16L2547.76 2446.71C2554.71 2451.82 2560.49 2458.69 2564.64 2466.76C2568.79 2474.83 2571.19 2483.88 2571.66 2493.18V3043.38C2571.52 3324.05 2506.97 3599.95 2384.24 3844.56C2261.5 4089.17 2084.69 4294.26 1870.83 4440.11C1861.99 4446 1851.89 4449.11 1841.61 4449.11C1831.32 4449.11 1821.23 4446 1812.39 4440.11L574.973 3640.21C572.075 3639.09 569.558 3636.99 567.772 3634.2C565.985 3631.4 565.017 3628.06 565.002 3624.62C564.987 3621.18 565.925 3617.82 567.687 3615.01C569.449 3612.2 571.947 3610.07 574.835 3608.92V3608.92Z" fill="white"/>
<path d="M1841.55 4457.76C1830.08 4457.78 1818.83 4454.36 1808.94 4447.85L571.527 3646.86C567.599 3645.03 564.244 3641.93 561.884 3637.96C559.524 3633.99 558.264 3629.33 558.264 3624.56C558.264 3619.79 559.524 3615.12 561.884 3611.16C564.244 3607.19 567.599 3604.09 571.527 3602.25V3602.25C785.3 3456.8 962.161 3252.21 1085.15 3008.09C1208.14 2763.98 1273.13 2488.53 1273.88 2208.16V1657.65C1273.58 1652.96 1274.39 1648.27 1276.23 1644.05C1278.08 1639.83 1280.89 1636.24 1284.38 1633.64C1288.12 1631.51 1292.31 1630.56 1296.49 1630.89C1300.68 1631.22 1304.7 1632.81 1308.15 1635.5L2551.5 2440.04C2559.56 2445.78 2566.28 2453.59 2571.08 2462.84C2575.89 2472.08 2578.65 2482.49 2579.13 2493.17V3043.38C2578.24 3325.35 2513.03 3602.38 2389.71 3848.13C2266.39 4093.87 2089.05 4300.16 1874.56 4447.38C1864.64 4454.24 1853.2 4457.83 1841.55 4457.76V4457.76ZM578.434 3615.57C574.29 3618.36 571.941 3621.62 571.941 3624.71C571.941 3627.81 574.29 3630.76 578.434 3633.39L1815.85 4434.53C1823.64 4439.66 1832.51 4442.37 1841.55 4442.37C1850.58 4442.37 1859.45 4439.66 1867.24 4434.53C2079.56 4288.57 2255.06 4084.16 2377.07 3840.73C2499.09 3597.3 2563.55 3322.93 2564.35 3043.69V2493.17C2563.9 2485.22 2561.82 2477.5 2558.27 2470.59C2554.72 2463.69 2549.81 2457.8 2543.9 2453.36L1300.55 1648.82C1299.15 1647.62 1297.51 1646.83 1295.78 1646.5C1294.05 1646.18 1292.27 1646.34 1290.6 1646.96C1289.25 1648.26 1288.22 1649.92 1287.59 1651.79C1286.96 1653.66 1286.76 1655.67 1287.01 1657.65V2207.85C1286.24 2490.93 1220.65 2769.05 1096.5 3015.54C972.355 3262.04 793.824 3468.65 578.02 3615.57H578.434Z" fill="#E0E0E0"/>
<path d="M2040.34 2336.28L2373.42 2551.9C2381.93 2557.9 2389.06 2566.06 2394.24 2575.72C2399.42 2585.38 2402.51 2596.26 2403.26 2607.5C2403.26 2627.64 2389.44 2635.23 2373.42 2624.54L2040.34 2408.92C2031.81 2402.9 2024.67 2394.72 2019.48 2385.03C2014.3 2375.35 2011.22 2364.43 2010.5 2353.16C2010.08 2333.49 2023.48 2325.59 2040.34 2336.28Z" fill="#E0E0E0"/>
<path d="M1841.67 2534.85C1841.67 2554.83 1827.86 2562.42 1811.69 2551.73L1478.75 2336.27C1470.24 2330.26 1463.11 2322.1 1457.93 2312.45C1452.75 2302.79 1449.66 2291.9 1448.91 2280.66C1448.91 2260.52 1462.73 2252.93 1478.75 2263.62L1811.69 2479.09C1820.25 2485.08 1827.43 2493.25 1832.64 2502.94C1837.85 2512.63 1840.94 2523.57 1841.67 2534.85V2534.85Z" fill="#E0E0E0"/>
<path d="M2386.54 3177.99C2384.05 3196.43 2368.3 3202.62 2351.73 3191.94L1457.75 2613.23C1449.63 2607.88 1442.98 2600.12 1438.54 2590.8C1434.1 2581.47 1432.05 2570.96 1432.61 2560.41C1435.1 2541.98 1450.16 2535.63 1466.6 2546.32L2360.84 3125.17C2369.04 3130.48 2375.78 3138.22 2380.31 3147.54C2384.84 3156.86 2387 3167.39 2386.54 3177.99V3177.99Z" fill="#E0E0E0"/>
<path d="M2349.65 3372.24C2345.23 3389.43 2328.1 3394.7 2311.52 3384.01L1417.55 2805.15C1409.69 2800.31 1403.37 2792.85 1399.46 2783.8C1395.55 2774.75 1394.24 2764.57 1395.72 2754.65C1400.01 2737.3 1416.58 2731.88 1433.02 2742.57L2327.13 3321.43C2335.1 3326.26 2341.54 3333.74 2345.57 3342.83C2349.6 3351.93 2351.03 3362.2 2349.65 3372.24V3372.24Z" fill="#E0E0E0"/>
<path d="M2293.98 3554.08C2288.04 3570.35 2269.67 3574.69 2252.54 3564L1358.42 2985.29C1350.75 2980.89 1344.67 2973.63 1341.24 2964.76C1337.82 2955.88 1337.25 2945.95 1339.64 2936.65C1341.4 2932.7 1343.93 2929.24 1347.03 2926.51C1350.13 2923.78 1353.74 2921.86 1357.58 2920.88C1361.43 2919.91 1365.42 2919.9 1369.27 2920.86C1373.11 2921.81 1376.72 2923.72 1379.84 2926.43L2275.19 3505.29C2282.83 3509.79 2288.86 3517.09 2292.28 3525.96C2295.7 3534.84 2296.3 3544.77 2293.98 3554.08V3554.08Z" fill="#E0E0E0"/>
<path d="M2221.04 3724.94C2216.14 3732.47 2208.79 3737.52 2200.59 3739C2192.39 3740.48 2184 3738.26 2177.24 3732.84L1283.27 3154.44C1275.81 3150.46 1269.99 3143.43 1267.01 3134.79C1264.03 3126.14 1264.11 3116.55 1267.24 3107.98C1269.56 3104.22 1272.52 3101.02 1275.95 3098.56C1279.39 3096.11 1283.22 3094.44 1287.23 3093.66C1291.24 3092.88 1295.35 3093.01 1299.32 3094.03C1303.29 3095.05 1307.04 3096.95 1310.35 3099.61L2204.46 3678.31C2211.98 3682.27 2217.88 3689.3 2220.96 3697.95C2224.04 3706.61 2224.07 3716.26 2221.04 3724.94V3724.94Z" fill="#E0E0E0"/>
<path d="M1704.78 3681.1C1698.67 3688.03 1690.61 3692.37 1681.97 3693.39C1673.33 3694.4 1664.65 3692.03 1657.39 3686.68L1156.18 3362.47C1152.61 3360.67 1149.43 3358.04 1146.83 3354.76C1144.24 3351.48 1142.3 3347.61 1141.14 3343.43C1139.97 3339.24 1139.62 3334.82 1140.09 3330.47C1140.57 3326.11 1141.86 3321.92 1143.89 3318.17C1149.86 3311.18 1157.82 3306.75 1166.4 3305.65C1174.98 3304.55 1183.63 3306.84 1190.86 3312.13L1692.21 3637.42C1708.78 3647.49 1714.45 3667.62 1704.78 3681.1Z" fill="#E0E0E0"/>
<path d="M1521.74 3981.77C1521.74 3981.77 1259.25 4176.01 943.857 4189.49C1008.1 4231.15 1153.02 4248.35 1264.92 4231.15C1264.92 4231.15 1249.31 4304.11 1136.44 4397.36C1136.44 4397.36 1320.18 4452.97 1650.22 4064.79L1521.74 3981.77Z" fill="#DD6060"/>
<path d="M1799.39 4054.72C1743.17 4118.85 1629.74 4124.27 1552.24 4074.08C1474.74 4023.9 1462.58 3937.31 1518.81 3872.71C1575.04 3808.12 1678.1 3791.86 1755.6 3841.73C1833.1 3891.61 1855.62 3990.9 1799.39 4054.72Z" fill="#DD6060"/>
<path opacity="0.2" d="M1799.39 4054.72C1743.17 4118.85 1629.74 4124.27 1552.24 4074.08C1474.74 4023.9 1462.58 3937.31 1518.81 3872.71C1575.04 3808.12 1678.1 3791.86 1755.6 3841.73C1833.1 3891.61 1855.62 3990.9 1799.39 4054.72Z" fill="black"/>
<path d="M1799.39 4035.35C1743.17 4099.48 1629.74 4104.75 1552.24 4054.71C1474.74 4004.68 1462.58 3917.78 1518.81 3853.35C1575.04 3788.91 1678.1 3772.33 1755.6 3822.37C1833.1 3872.4 1855.62 3971.22 1799.39 4035.35Z" fill="#DD6060"/>
<path d="M1669.11 4041.87C1635.3 4042.27 1601.98 4032.82 1572.4 4014.45C1544.77 3996.64 1528.2 3973.4 1525.29 3948.78C1524.59 3937.22 1526.24 3925.64 1530.12 3914.9C1533.99 3904.17 1540 3894.56 1547.67 3886.82C1576.64 3856.15 1615.19 3839.46 1655.02 3840.35C1682.8 3840.08 1710.16 3848.04 1734.32 3863.43C1748.02 3871.26 1759.97 3882.46 1769.27 3896.19C1778.58 3909.92 1785 3925.83 1788.06 3942.73C1789.42 3953.73 1788.43 3964.93 1785.16 3975.41C1781.89 3985.89 1776.44 3995.34 1769.27 4002.99C1741.65 4030.03 1705.73 4043.97 1669.11 4041.87Z" fill="#DD6060"/>
<path opacity="0.3" d="M1669.11 4041.87C1635.3 4042.27 1601.98 4032.82 1572.4 4014.45C1544.77 3996.64 1528.2 3973.4 1525.29 3948.78C1524.59 3937.22 1526.24 3925.64 1530.12 3914.9C1533.99 3904.17 1540 3894.56 1547.67 3886.82C1576.64 3856.15 1615.19 3839.46 1655.02 3840.35C1682.8 3840.08 1710.16 3848.04 1734.32 3863.43C1748.02 3871.26 1759.97 3882.46 1769.27 3896.19C1778.58 3909.92 1785 3925.83 1788.06 3942.73C1789.42 3953.73 1788.43 3964.93 1785.16 3975.41C1781.89 3985.89 1776.44 3995.34 1769.27 4002.99C1741.65 4030.03 1705.73 4043.97 1669.11 4041.87Z" fill="black"/>
<path d="M1734.9 3882.47C1710.72 3867.15 1683.38 3859.19 1655.6 3859.39C1615.77 3858.51 1577.23 3875.19 1548.26 3905.86C1537.09 3917.93 1529.39 3933.46 1526.16 3950.47C1529.3 3964.34 1535.12 3977.25 1543.21 3988.31C1551.31 3999.37 1561.47 4008.29 1572.99 4014.44C1602.57 4032.81 1635.89 4042.26 1669.7 4041.86C1706.52 4044.08 1742.67 4030.07 1770.41 4002.83C1780.54 3991.78 1787.15 3977.3 1789.2 3961.62C1786.01 3944.71 1779.48 3928.82 1770.08 3915.12C1760.68 3901.42 1748.66 3890.26 1734.9 3882.47Z" fill="#DD6060"/>
<path opacity="0.2" d="M1734.9 3882.47C1710.72 3867.15 1683.38 3859.19 1655.6 3859.39C1615.77 3858.51 1577.23 3875.19 1548.26 3905.86C1537.09 3917.93 1529.39 3933.46 1526.16 3950.47C1529.3 3964.34 1535.12 3977.25 1543.21 3988.31C1551.31 3999.37 1561.47 4008.29 1572.99 4014.44C1602.57 4032.81 1635.89 4042.26 1669.7 4041.86C1706.52 4044.08 1742.67 4030.07 1770.41 4002.83C1780.54 3991.78 1787.15 3977.3 1789.2 3961.62C1786.01 3944.71 1779.48 3928.82 1770.08 3915.12C1760.68 3901.42 1748.66 3890.26 1734.9 3882.47Z" fill="black"/>
</svg>
