<svg width="32768" height="6395" viewBox="0 0 32768 6395" fill="none" xmlns="http://www.w3.org/2000/svg">
<path d="M11087.7 6374.26V5877.73H32768V6394.44L11087.7 6374.26Z" fill="#7B7B7B"/>
<path d="M0 6372.91V5877.73H11087.7V6372.91H0Z" fill="#DD6060"/>
<path d="M14134.2 4252.25C13811.2 4252.25 13518.8 4205.6 13256.8 4112.31C12998.5 4015.42 12777.8 3879.07 12594.8 3703.25C12415.4 3523.83 12275.4 3308.54 12175 3057.36C12078.1 2802.59 12029.6 2517.33 12029.6 2201.56C12029.6 1875.03 12081.7 1577.2 12185.7 1308.08C12293.4 1035.37 12442.3 802.136 12632.5 608.37C12822.7 414.604 13050.5 265.691 13316 161.632C13581.6 53.984 13875.8 0.16011 14198.7 0.16011C14421.2 0.16011 14632.9 30.6604 14833.9 91.6609C15034.8 152.661 15251.9 251.338 15485.1 387.692L15587.4 53.984H15781.2V1415.73H15512.1C15440.3 1078.43 15295 816.49 15076.1 629.9C14860.8 443.31 14589.9 350.016 14263.3 350.016C13850.7 350.016 13529.5 509.693 13299.9 829.048C13073.8 1144.82 12960.8 1587.97 12960.8 2158.5C12960.8 2718.27 13072 3147.06 13294.5 3444.89C13517 3742.72 13839.9 3891.63 14263.3 3891.63C14568.3 3891.63 14805.2 3814.48 14973.8 3660.19C15146 3502.3 15232.2 3285.21 15232.2 3008.92C15232.2 2843.86 15189.1 2723.65 15103 2648.3C15016.9 2569.35 14871.5 2520.91 14667 2502.97V2287.68H16410.9V2502.97C16235.1 2502.97 16113.1 2542.44 16044.9 2621.38C15976.7 2696.74 15942.6 2834.89 15942.6 3035.83V3751.69C15863.7 3751.69 15797.3 3755.28 15743.5 3762.45C15689.7 3766.04 15635.8 3776.8 15582 3794.75C15531.8 3809.1 15474.4 3834.22 15409.8 3870.1C15345.2 3905.98 15264.5 3952.63 15167.6 4010.04C14891.3 4171.51 14546.8 4252.25 14134.2 4252.25Z" fill="black"/>
<path d="M19398 3697.86C19071.5 4067.45 18664.2 4252.25 18176.2 4252.25C17953.7 4252.25 17751 4218.16 17568 4149.98C17388.6 4078.22 17234.3 3979.54 17105.1 3853.95C16975.9 3724.77 16875.5 3572.27 16803.7 3396.45C16731.9 3220.62 16696.1 3025.06 16696.1 2809.77C16696.1 2587.3 16733.7 2384.56 16809.1 2201.56C16884.4 2014.97 16990.3 1855.29 17126.6 1722.53C17266.6 1586.17 17429.9 1480.32 17616.4 1404.96C17806.6 1329.61 18014.7 1291.93 18240.8 1291.93C18621.2 1291.93 18917.2 1394.2 19128.9 1598.73C19340.6 1803.26 19446.5 2090.32 19446.5 2459.91C19446.5 2517.33 19437.5 2553.21 19419.5 2567.56C19401.6 2578.33 19351.4 2583.71 19268.8 2583.71H17535.7C17521.4 2616 17514.2 2675.21 17514.2 2761.33C17514.2 3112.98 17589.5 3391.07 17740.2 3595.6C17894.5 3800.13 18102.6 3902.39 18364.6 3902.39C18515.3 3902.39 18664.2 3868.31 18811.3 3800.13C18962 3731.95 19107.4 3635.07 19247.3 3509.48L19398 3697.86ZM18353.8 2282.29C18497.4 2282.29 18588.9 2275.12 18628.3 2260.76C18671.4 2242.82 18692.9 2203.35 18692.9 2142.35C18692.9 1984.47 18648.1 1855.29 18558.4 1754.82C18468.7 1654.35 18355.6 1604.11 18219.3 1604.11C18065 1604.11 17926.8 1668.7 17804.8 1797.88C17686.4 1923.47 17609.3 2084.94 17573.4 2282.29H18353.8Z" fill="black"/>
<path d="M20097.5 4198.43H19930.7V3218.83H20156.7C20217.7 3477.18 20305.6 3665.57 20420.5 3783.98C20535.3 3902.39 20684.2 3961.6 20867.2 3961.6C21000 3961.6 21102.2 3934.69 21174 3880.86C21249.3 3823.45 21287 3746.3 21287 3649.42C21287 3548.95 21242.2 3452.07 21152.5 3358.77C21062.8 3261.89 20917.4 3159.62 20716.5 3051.98C20443.8 2904.86 20248.2 2759.53 20129.8 2616C20011.4 2468.88 19952.2 2303.82 19952.2 2120.82C19952.2 2002.41 19973.7 1892.97 20016.8 1792.5C20063.4 1688.44 20124.4 1598.73 20199.8 1523.38C20278.7 1448.02 20372 1390.61 20479.7 1351.14C20587.3 1308.08 20703.9 1286.55 20829.5 1286.55C20940.8 1286.55 21050.2 1302.7 21157.8 1334.99C21269.1 1367.29 21366 1412.14 21448.5 1469.55L21545.4 1340.38H21685.3V2153.12H21475.4C21392.9 1948.59 21306.8 1801.47 21217 1711.76C21130.9 1622.05 21025.1 1577.2 20899.5 1577.2C20799 1577.2 20718.3 1604.11 20657.3 1657.94C20599.9 1711.76 20571.2 1783.53 20571.2 1873.23C20571.2 1973.7 20614.2 2068.79 20700.3 2158.5C20790 2248.21 20937.2 2346.88 21141.7 2454.53C21285.2 2533.47 21409 2610.62 21513.1 2685.97C21617.1 2761.33 21701.5 2838.47 21766.1 2917.42C21830.6 2992.77 21877.3 3073.51 21906 3159.62C21938.3 3242.15 21954.4 3331.86 21954.4 3428.74C21954.4 3554.33 21931.1 3667.36 21884.5 3767.83C21837.8 3868.31 21771.4 3954.42 21685.3 4026.19C21599.2 4097.95 21495.1 4153.57 21373.1 4193.04C21254.7 4232.51 21122 4252.25 20974.8 4252.25C20820.5 4252.25 20677 4232.51 20544.3 4193.04C20411.5 4149.98 20302 4088.98 20215.9 4010.04L20097.5 4198.43Z" fill="black"/>
<path d="M23320.6 1695.61H23342.1C23579 1426.49 23887.5 1291.93 24267.9 1291.93C24476 1291.93 24666.2 1329.61 24838.4 1404.96C25014.3 1476.73 25165 1578.99 25290.6 1711.76C25419.7 1840.94 25518.4 1997.03 25586.6 2180.03C25658.3 2359.44 25694.2 2556.8 25694.2 2772.09C25694.2 2987.39 25658.3 3184.74 25586.6 3364.15C25518.4 3543.57 25421.5 3699.66 25295.9 3832.42C25170.3 3965.19 25019.6 4069.25 24843.8 4144.6C24671.6 4216.37 24483.2 4252.25 24278.7 4252.25C23930.6 4252.25 23665.1 4133.84 23482.1 3897.01H23460.5V4645.16C23460.5 4788.69 23467.7 4903.52 23482.1 4989.64C23496.4 5075.76 23526.9 5142.14 23573.6 5188.79C23620.2 5235.43 23684.8 5267.73 23767.3 5285.67C23853.5 5303.61 23966.5 5314.37 24106.4 5317.96V5544.02H22249.5V5317.96C22346.4 5314.37 22425.3 5303.61 22486.3 5285.67C22547.3 5267.73 22594 5235.43 22626.3 5188.79C22662.2 5142.14 22685.5 5077.55 22696.2 4995.02C22710.6 4916.08 22717.8 4812.02 22717.8 4682.84V2680.59C22717.8 2515.53 22714.2 2359.44 22707 2212.32C22699.8 2061.62 22690.9 1955.76 22680.1 1894.76C22662.2 1812.23 22620.9 1754.82 22556.3 1722.53C22495.3 1690.23 22389.4 1674.08 22238.7 1674.08V1464.17L23320.6 1313.46V1695.61ZM24235.6 1598.73C24120.8 1598.73 24011.3 1623.85 23907.3 1674.08C23803.2 1724.32 23720.7 1790.7 23659.7 1873.23C23598.7 1955.76 23552 2059.82 23519.7 2185.41C23487.5 2307.41 23471.3 2440.18 23471.3 2583.71V2949.71C23471.3 3204.48 23534.1 3421.57 23659.7 3600.98C23796 3798.33 23988 3897.01 24235.6 3897.01C24454.5 3897.01 24616 3807.3 24720 3627.89C24827.7 3444.89 24881.5 3163.21 24881.5 2782.86C24881.5 1993.44 24666.2 1598.73 24235.6 1598.73Z" fill="black"/>
<path d="M27288.8 3364.15C27288.8 3504.1 27294.2 3615.33 27305 3697.86C27319.3 3776.8 27346.3 3837.81 27385.7 3880.86C27425.2 3923.92 27482.6 3952.63 27558 3966.98C27633.3 3977.75 27733.8 3983.13 27859.4 3983.13V4198.43H26061.7V3983.13C26169.3 3975.95 26255.4 3965.19 26320 3950.84C26384.6 3936.48 26433 3907.78 26465.3 3864.72C26497.6 3821.66 26517.4 3760.66 26524.5 3681.72C26535.3 3599.19 26540.7 3489.74 26540.7 3353.39V2696.74C26540.7 2474.27 26535.3 2296.65 26524.5 2163.88C26513.8 2031.12 26490.5 1928.85 26454.6 1857.09C26418.7 1785.32 26366.7 1738.67 26298.5 1717.14C26233.9 1692.03 26147.8 1679.47 26040.1 1679.47V1491.08L27116.6 1291.93L27202.7 1910.91H27224.3C27321.1 1720.73 27448.5 1570.02 27606.4 1458.79C27764.3 1347.55 27931.1 1291.93 28107 1291.93C28243.3 1291.93 28354.6 1326.02 28440.7 1394.2C28526.8 1462.38 28569.9 1548.49 28569.9 1652.55C28569.9 1767.38 28535.8 1864.26 28467.6 1943.2C28403 2022.15 28313.3 2061.62 28198.5 2061.62C28144.6 2061.62 28096.2 2050.85 28053.1 2029.32C28010.1 2007.79 27970.6 1984.47 27934.7 1959.35C27902.4 1930.64 27868.4 1905.53 27832.5 1884C27800.2 1858.88 27766.1 1846.32 27730.2 1846.32C27662 1846.32 27597.4 1891.17 27536.4 1980.88C27475.4 2070.59 27425.2 2190.79 27385.7 2341.5C27357 2449.15 27333.7 2571.15 27315.8 2707.5C27297.8 2840.27 27288.8 2973.03 27288.8 3105.8V3364.15Z" fill="black"/>
<path d="M30320 1291.93C30535.3 1291.93 30738.1 1329.61 30928.2 1404.96C31122 1476.73 31290.6 1577.2 31434.2 1706.38C31581.3 1835.56 31696.1 1989.85 31778.6 2169.26C31864.8 2345.09 31907.8 2538.85 31907.8 2750.56C31907.8 2969.45 31864.8 3170.39 31778.6 3353.39C31696.1 3536.39 31581.3 3694.27 31434.2 3827.04C31290.6 3959.81 31122 4063.87 30928.2 4139.22C30738.1 4214.57 30535.3 4252.25 30320 4252.25C30108.3 4252.25 29907.4 4216.37 29717.2 4144.6C29527 4069.25 29360.2 3965.19 29216.6 3832.42C29073.1 3699.66 28960.1 3541.77 28877.5 3358.77C28795 3172.18 28753.7 2969.45 28753.7 2750.56C28753.7 2538.85 28795 2343.29 28877.5 2163.88C28960.1 1984.47 29073.1 1830.17 29216.6 1701C29360.2 1571.82 29527 1471.35 29717.2 1399.58C29907.4 1327.82 30108.3 1291.93 30320 1291.93ZM30320 1604.11C30212.4 1604.11 30113.7 1632.82 30024 1690.23C29934.3 1744.05 29857.1 1821.2 29792.5 1921.67C29731.5 2022.15 29683.1 2144.15 29647.2 2287.68C29614.9 2427.62 29598.8 2583.71 29598.8 2755.94C29598.8 2935.36 29614.9 3096.83 29647.2 3240.36C29683.1 3383.89 29731.5 3505.89 29792.5 3606.36C29857.1 3706.83 29932.5 3785.78 30018.6 3843.19C30108.3 3897.01 30208.8 3923.92 30320 3923.92C30431.3 3923.92 30531.7 3897.01 30621.4 3843.19C30714.7 3785.78 30793.7 3706.83 30858.3 3606.36C30922.8 3502.3 30973.1 3378.51 31009 3234.98C31044.8 3091.45 31062.8 2931.77 31062.8 2755.94C31062.8 2583.71 31044.8 2427.62 31009 2287.68C30973.1 2147.73 30922.8 2027.53 30858.3 1927.06C30793.7 1823 30714.7 1744.05 30621.4 1690.23C30531.7 1632.82 30431.3 1604.11 30320 1604.11Z" fill="black"/>
<path d="M1076.48 4650.55V1593.35C2518.96 2067 4198.27 2137.16 4994.86 1873.23C6674.17 1316.84 8418.06 150.867 10118.9 301.574V4650.55H1076.48Z" fill="#AE2329"/>
<path d="M1076.48 21.6894C2798.84 21.6894 3143.32 516.869 5511.57 1485.7C4521.21 1722.53 2454.37 1903.37 1076.48 1334.99V21.6894Z" fill="#AE2329"/>
</svg>
